{
    "asset" : {
        "generator" : "Khronos glTF Blender I/O v1.5.17",
        "version" : "2.0"
    },
    "scene" : 0,
    "scenes" : [
        {
            "name" : "Scene",
            "nodes" : [
                0,
                1,
                2
            ]
        }
    ],
    "nodes" : [
        {
            "name" : "Light",
            "rotation" : [
                0.16907575726509094,
                0.7558803558349609,
                -0.27217137813568115,
                0.570947527885437
            ],
            "translation" : [
                4.076245307922363,
                5.903861999511719,
                -1.0054539442062378
            ]
        },
        {
            "name" : "Camera",
            "rotation" : [
                0.483536034822464,
                0.33687159419059753,
                -0.20870360732078552,
                0.7804827094078064
            ],
            "translation" : [
                7.358891487121582,
                4.958309173583984,
                6.925790786743164
            ]
        },
        {
            "mesh" : 0,
            "name" : "car",
            "rotation" : [
                0.7071068286895752,
                0,
                0,
                0.7071067094802856
            ]
        }
    ],
    "materials" : [
        {
            "doubleSided" : true,
            "name" : "Mat_3",
            "pbrMetallicRoughness" : {
                "baseColorFactor" : [
                    0.800000011920929,
                    0.800000011920929,
                    0.800000011920929,
                    1
                ],
                "metallicFactor" : 0,
                "roughnessFactor" : 0.5
            }
        },
        {
            "doubleSided" : true,
            "name" : "_2",
            "pbrMetallicRoughness" : {
                "baseColorFactor" : [
                    0.800000011920929,
                    0.800000011920929,
                    0.800000011920929,
                    1
                ],
                "metallicFactor" : 0,
                "roughnessFactor" : 0.5
            }
        },
        {
            "doubleSided" : true,
            "name" : "_2_1",
            "pbrMetallicRoughness" : {
                "baseColorFactor" : [
                    0.800000011920929,
                    0.800000011920929,
                    0.800000011920929,
                    1
                ],
                "metallicFactor" : 0,
                "roughnessFactor" : 0.5
            }
        },
        {
            "doubleSided" : true,
            "name" : "_2_2",
            "pbrMetallicRoughness" : {
                "baseColorFactor" : [
                    0.800000011920929,
                    0.800000011920929,
                    0.800000011920929,
                    1
                ],
                "metallicFactor" : 0,
                "roughnessFactor" : 0.5
            }
        },
        {
            "doubleSided" : true,
            "name" : "Mat_2",
            "pbrMetallicRoughness" : {
                "baseColorFactor" : [
                    0.800000011920929,
                    0.800000011920929,
                    0.800000011920929,
                    1
                ],
                "metallicFactor" : 0,
                "roughnessFactor" : 0.5
            }
        }
    ],
    "meshes" : [
        {
            "name" : "car",
            "primitives" : [
                {
                    "attributes" : {
                        "POSITION" : 0,
                        "NORMAL" : 1,
                        "TEXCOORD_0" : 2
                    },
                    "indices" : 3,
                    "material" : 0
                },
                {
                    "attributes" : {
                        "POSITION" : 4,
                        "NORMAL" : 5,
                        "TEXCOORD_0" : 6
                    },
                    "indices" : 7,
                    "material" : 1
                },
                {
                    "attributes" : {
                        "POSITION" : 8,
                        "NORMAL" : 9,
                        "TEXCOORD_0" : 10
                    },
                    "indices" : 11,
                    "material" : 2
                },
                {
                    "attributes" : {
                        "POSITION" : 12,
                        "NORMAL" : 13,
                        "TEXCOORD_0" : 14
                    },
                    "indices" : 15,
                    "material" : 3
                },
                {
                    "attributes" : {
                        "POSITION" : 16,
                        "NORMAL" : 17,
                        "TEXCOORD_0" : 18
                    },
                    "indices" : 19,
                    "material" : 4
                }
            ]
        }
    ],
    "accessors" : [
        {
            "bufferView" : 0,
            "componentType" : 5126,
            "count" : 126662,
            "max" : [
                53.07932662963867,
                102.3604736328125,
                -41.04829406738281
            ],
            "min" : [
                -86.28443145751953,
                -64.83845520019531,
                -234.03265380859375
            ],
            "type" : "VEC3"
        },
        {
            "bufferView" : 1,
            "componentType" : 5126,
            "count" : 126662,
            "type" : "VEC3"
        },
        {
            "bufferView" : 2,
            "componentType" : 5126,
            "count" : 126662,
            "type" : "VEC2"
        },
        {
            "bufferView" : 3,
            "componentType" : 5125,
            "count" : 181080,
            "type" : "SCALAR"
        },
        {
            "bufferView" : 4,
            "componentType" : 5126,
            "count" : 23460,
            "max" : [
                235.70684814453125,
                139.63584899902344,
                -38.03927230834961
            ],
            "min" : [
                -257.4804382324219,
                -139.63584899902344,
                -181.8821563720703
            ],
            "type" : "VEC3"
        },
        {
            "bufferView" : 5,
            "componentType" : 5126,
            "count" : 23460,
            "type" : "VEC3"
        },
        {
            "bufferView" : 6,
            "componentType" : 5126,
            "count" : 23460,
            "type" : "VEC2"
        },
        {
            "bufferView" : 7,
            "componentType" : 5123,
            "count" : 37740,
            "type" : "SCALAR"
        },
        {
            "bufferView" : 8,
            "componentType" : 5126,
            "count" : 9524,
            "max" : [
                182.9016876220703,
                183.78964233398438,
                0
            ],
            "min" : [
                -178.40985107421875,
                -184.18963623046875,
                -285.69525146484375
            ],
            "type" : "VEC3"
        },
        {
            "bufferView" : 9,
            "componentType" : 5126,
            "count" : 9524,
            "type" : "VEC3"
        },
        {
            "bufferView" : 10,
            "componentType" : 5126,
            "count" : 9524,
            "type" : "VEC2"
        },
        {
            "bufferView" : 11,
            "componentType" : 5123,
            "count" : 14430,
            "type" : "SCALAR"
        },
        {
            "bufferView" : 12,
            "componentType" : 5126,
            "count" : 960,
            "max" : [
                84.96204376220703,
                113.53934478759766,
                -228.76913452148438
            ],
            "min" : [
                -108.30049896240234,
                -113.53934478759766,
                -278.6875305175781
            ],
            "type" : "VEC3"
        },
        {
            "bufferView" : 13,
            "componentType" : 5126,
            "count" : 960,
            "type" : "VEC3"
        },
        {
            "bufferView" : 14,
            "componentType" : 5126,
            "count" : 960,
            "type" : "VEC2"
        },
        {
            "bufferView" : 15,
            "componentType" : 5123,
            "count" : 1440,
            "type" : "SCALAR"
        },
        {
            "bufferView" : 16,
            "componentType" : 5126,
            "count" : 2208,
            "max" : [
                199.554931640625,
                107.87977600097656,
                -124.59581756591797
            ],
            "min" : [
                187.41781616210938,
                -107.15833282470703,
                -135.59811401367188
            ],
            "type" : "VEC3"
        },
        {
            "bufferView" : 17,
            "componentType" : 5126,
            "count" : 2208,
            "type" : "VEC3"
        },
        {
            "bufferView" : 18,
            "componentType" : 5126,
            "count" : 2208,
            "type" : "VEC2"
        },
        {
            "bufferView" : 19,
            "componentType" : 5123,
            "count" : 3168,
            "type" : "SCALAR"
        }
    ],
    "bufferViews" : [
        {
            "buffer" : 0,
            "byteLength" : 1519944,
            "byteOffset" : 0
        },
        {
            "buffer" : 0,
            "byteLength" : 1519944,
            "byteOffset" : 1519944
        },
        {
            "buffer" : 0,
            "byteLength" : 1013296,
            "byteOffset" : 3039888
        },
        {
            "buffer" : 0,
            "byteLength" : 724320,
            "byteOffset" : 4053184
        },
        {
            "buffer" : 0,
            "byteLength" : 281520,
            "byteOffset" : 4777504
        },
        {
            "buffer" : 0,
            "byteLength" : 281520,
            "byteOffset" : 5059024
        },
        {
            "buffer" : 0,
            "byteLength" : 187680,
            "byteOffset" : 5340544
        },
        {
            "buffer" : 0,
            "byteLength" : 75480,
            "byteOffset" : 5528224
        },
        {
            "buffer" : 0,
            "byteLength" : 114288,
            "byteOffset" : 5603704
        },
        {
            "buffer" : 0,
            "byteLength" : 114288,
            "byteOffset" : 5717992
        },
        {
            "buffer" : 0,
            "byteLength" : 76192,
            "byteOffset" : 5832280
        },
        {
            "buffer" : 0,
            "byteLength" : 28860,
            "byteOffset" : 5908472
        },
        {
            "buffer" : 0,
            "byteLength" : 11520,
            "byteOffset" : 5937332
        },
        {
            "buffer" : 0,
            "byteLength" : 11520,
            "byteOffset" : 5948852
        },
        {
            "buffer" : 0,
            "byteLength" : 7680,
            "byteOffset" : 5960372
        },
        {
            "buffer" : 0,
            "byteLength" : 2880,
            "byteOffset" : 5968052
        },
        {
            "buffer" : 0,
            "byteLength" : 26496,
            "byteOffset" : 5970932
        },
        {
            "buffer" : 0,
            "byteLength" : 26496,
            "byteOffset" : 5997428
        },
        {
            "buffer" : 0,
            "byteLength" : 17664,
            "byteOffset" : 6023924
        },
        {
            "buffer" : 0,
            "byteLength" : 6336,
            "byteOffset" : 6041588
        }
    ],
    "buffers" : [
        {
            "byteLength" : 6047924,
            "uri" : "Car.bin"
        }
    ]
}
